<?xml version="1.0" encoding="UTF-8"?><svg id="Calque_2" xmlns="http://www.w3.org/2000/svg" viewBox="0 0 86.06 79.02"><defs><style>.cls-1{stroke-width:0px;}</style></defs><g id="Calque_1-2"><path class="cls-1" d="m33.94,9.09c-1.7-3.82-6.21-6.06-10.28-5.02-2.04.53-3.81,1.85-5.04,3.55-1.39,1.93-1.73,4.09-1.6,6.41.06,1.05.24,2.24-.32,3.2-.48.82-1.38,1.26-2.26,1.53-1.99.6-4.06.33-6.1.38-2.16.05-4.37.41-6.09,1.82C.73,22.2-.05,24.12,0,26.07c.11,4.49,3.76,7.5,8.05,7.86,2.26.19,4.42-.41,6.47-1.32,1.04-.46,2.21-1.1,3.39-.95,1.25.16,2.26,1.17,3.16,1.97,3.87,3.44,7.5,7.16,10.83,11.12,1.73,2.05,3.38,4.17,4.95,6.35,1.27,1.77,3.08,3.84,2.96,6.16s-1.77,4.15-3.17,5.76-2.86,3.11-3.81,5.02c-1.73,3.48-2.07,8.38,2.07,10.28,3.91,1.81,8.79-.19,11.39-3.33,1.38-1.67,2.29-3.63,2.53-5.79.21-1.8-.53-4.77,1.17-6.03,1.42-1.06,3.66-.48,5.15.1,2.3.88,4.31,2.4,6.76,2.92,4.5.96,8.17-2,8.62-6.49s-2.9-8.08-6.6-9.97c-4.41-2.25-9.47-2.65-13.99-4.63-8.02-3.53-14.62-10-18.27-17.97-.7-1.54-2.09-4.06-.02-5.06,1.37-.67,2.98-.76,4.41-1.27,1.73-.62,3.29-1.71,3.82-3.56.58-2.01-.2-4.2-1.56-5.71-1.52-1.68-3.76-2.49-5.84-3.23-1.82-.65-2.61,2.25-.8,2.89s4.16,1.4,5.06,3.29c.76,1.6.08,2.84-1.48,3.42-2.75,1.03-6.55.98-7.54,4.41-.63,2.16.48,4.41,1.36,6.34.82,1.8,1.8,3.54,2.91,5.18,2.3,3.4,5.1,6.43,8.33,8.96s6.61,4.43,10.35,5.83c4.28,1.61,9.14,1.95,13.05,4.46,2.93,1.88,5.45,6.03,2.68,9.18-2.97,3.38-8.27-1.31-11.43-2.2-3.66-1.03-8.01-.11-8.86,4.14-.4,1.97.06,4.02-.52,5.97-.54,1.8-1.76,3.42-3.32,4.45-2.73,1.81-8.3,2.17-7.68-2.49.54-4.04,4.19-6.59,6.35-9.75,1.09-1.61,1.92-3.52,1.88-5.5-.05-2.28-1.21-4.22-2.48-6.04-2.73-3.93-5.72-7.69-8.94-11.24-1.64-1.81-3.35-3.56-5.11-5.25-1.62-1.56-3.26-3.22-5.12-4.51s-4.09-1.49-6.26-.67c-1.99.75-3.76,1.74-5.94,1.77-1.88.02-3.92-.58-5.05-2.17-.93-1.29-1.29-3.22-.49-4.66.95-1.71,3.16-1.94,4.91-1.98,1.99-.05,3.95.12,5.92-.25,1.79-.34,3.56-1.15,4.68-2.63,1.38-1.83,1.1-3.94,1.04-6.09-.11-4.01,3.58-7.34,7.57-6.06,1.75.56,3.06,1.84,3.8,3.5.78,1.76,3.37.24,2.59-1.51h0Z"/><path class="cls-1" d="m54.3,4.66c-.51-1.45-1.81-2.27-3.34-2.14-1.82.15-2.95,1.63-3.57,3.22-.76,1.95-1.17,4.08-1.44,6.15-.24,1.79-.54,3.84,1.12,5.06,1.35.99,3.09.79,4.66.64,1.12-.11,2.24-.24,3.36-.33.25-.02.9-.16,1.1-.01.22.17.15.61.14.89-.18,4.58-.79,9.2-1.27,13.76-.56,5.3-1.26,10.59-2.22,15.83-.35,1.89,2.54,2.7,2.89.8.94-5.11,1.63-10.25,2.2-15.41s1.24-10,1.4-14.98c.07-2.09-1.01-3.79-3.22-3.92-2.09-.12-4.18.55-6.28.51-1.02-.02-1.12-.24-1.06-1.23.09-1.28.32-2.56.61-3.81.25-1.09.48-2.29.98-3.29.19-.37.38-.66.74-.87.24-.14.41.2.32-.06.63,1.81,3.53,1.03,2.89-.8h0Z"/><path class="cls-1" d="m47.45,62.3c-1.59,2.93-2.87,6.26-3.17,9.61-.12,1.28.14,2.62,1.19,3.47,1.12.91,2.68.81,3.99.42,2.95-.87,4.94-3.3,7.63-4.65,1.18-.59,2.69-1.04,3.94-.39,1.18.62,1.81,2.02,2.52,3.07,1.41,2.09,3.31,3.61,5.95,3.57,2.49-.04,4.92-1.34,6.44-3.29,4.05-5.17.97-12.15-2.05-16.95-1.81-2.87-3.69-5.66-4.74-8.92-.99-3.06-1.43-6.24-1.63-9.44s-.25-6.57-.17-9.84c.07-3.03.45-6.39,2.73-8.62.92-.9,2.11-1.61,3.41-1.73,1.45-.13,2.68.68,3.96,1.22,2.8,1.17,5.51.36,6.99-2.35,1.37-2.51,1.81-5.84,1.55-8.65s-1.52-5.65-3.96-7.41-5.44-1.87-7.95-.38c-2.19,1.3-3.65,3.46-5.29,5.35-1.87,2.15-4.08,3.82-7.09,3.05-3.37-.86-6.08-3.56-8.38-6.02-1.32-1.41-3.44.71-2.12,2.12,3.53,3.78,8.74,8.42,14.38,6.78,4.4-1.28,6.02-5.69,9.4-8.28,1.82-1.4,4.07-1.35,5.8.2,2.29,2.04,2.52,5.32,2.09,8.18-.28,1.82-.94,5.52-3.52,4.93-1.29-.29-2.41-1.16-3.69-1.5s-2.68-.31-3.95.09c-5.82,1.82-7.28,8.08-7.36,13.46-.09,5.97-.08,12.18,1.43,17.99.75,2.89,1.97,5.58,3.52,8.13s3.41,5.02,4.53,7.81c1.04,2.6,1.64,5.91.11,8.45-1.02,1.69-3.23,2.96-5.23,2.57-2.54-.49-3.3-3.79-5.04-5.35-2.4-2.15-5.6-1.74-8.27-.34-1.43.75-2.65,1.84-3.96,2.76-.8.56-2.72,2.03-3.81,1.67-1-.33.1-3.41.34-4.22.51-1.77,1.21-3.44,2.08-5.05.92-1.7-1.67-3.21-2.59-1.51h0Z"/></g></svg>