<?xml version="1.0" encoding="UTF-8"?><svg id="Calque_2" xmlns="http://www.w3.org/2000/svg" viewBox="0 0 1322.75 300.57"><defs><style>.cls-1{stroke-width:0px;}</style></defs><g id="Calque_1-2"><path class="cls-1" d="m380.13,28.24c71.87-3.86,143.75-7.4,215.65-10.61,71.9-3.21,143.81-6.1,215.73-8.66,35.96-1.28,71.93-2.48,107.89-3.59,17.83-.55,35.66-1.09,53.48-1.6s36.22-2.85,53.29,1.48c15.92,4.03,28.67,15.11,40.96,25.41s25.16,21.62,37.38,32.84c24.22,22.23,47.53,45.46,70.15,69.32,45.16,47.63,87.57,97.76,129.63,148.11,5.32,6.37,10.64,12.75,15.96,19.13,1.24,1.48,3.35-.65,2.12-2.12-42.57-51.06-85.18-102.14-130.34-150.95-22.53-24.35-45.69-48.13-69.74-70.98-12.02-11.42-24.26-22.61-36.75-33.51-11.75-10.26-23.51-21.03-36.47-29.76C1035.57,3.63,1021.13.1,1004.94,0c-17.86-.11-35.78.87-53.63,1.4-36.28,1.08-72.56,2.24-108.84,3.48-72.55,2.49-145.09,5.31-217.62,8.46s-145.04,6.63-217.53,10.45c-9.06.48-18.12.96-27.18,1.45-1.92.1-1.93,3.1,0,3h0Z"/><path class="cls-1" d="m91.75,141.02c-12.46,15.95-24.7,32.07-36.71,48.35-12.03,16.31-23.84,32.79-35.42,49.43-6.52,9.38-12.97,18.8-19.35,28.28-1.08,1.61,1.52,3.11,2.59,1.51,11.23-16.68,22.69-33.21,34.37-49.58,11.73-16.43,23.68-32.71,35.86-48.81,6.86-9.07,13.79-18.09,20.79-27.06,1.17-1.5-.93-3.64-2.12-2.12h0Z"/></g></svg>