<?xml version="1.0" encoding="UTF-8"?><svg id="Calque_2" xmlns="http://www.w3.org/2000/svg" viewBox="0 0 177.53 197.5"><defs><style>.cls-1{stroke-width:0px;}</style></defs><g id="Calque_1-2"><path class="cls-1" d="m93.38,1.2c-20.38-3.03-41.22,0-60.85,5.77-7.77,2.28-16.45,5.83-19.87,13.79-1.45,3.38-1.97,7.32-.86,10.88,1.24,3.96,4.32,6.56,8.12,7.99,4.43,1.67,9.41,2.27,14.08,2.93s9.75,1.16,14.66,1.39c9.91.46,19.84-.07,29.66-1.51s19.36-3.79,28.65-7.09c7.35-2.61,15.25-5.84,20.16-12.22,2.38-3.09,3.93-7.07,3.55-11.01-.42-4.39-3.33-7.28-7.32-8.76-4.3-1.59-9.22-1.97-13.75-2.37-5.32-.47-10.67-.55-15.99-.22-2.58.16-5.16.42-7.72.76-.81.11-1.49.61-1.5,1.5,0,.73.7,1.61,1.5,1.5,9.72-1.3,19.63-1.32,29.34.11,3.49.51,7.86.94,10.53,3.51,2.87,2.76,2.22,7.41.58,10.65-3.17,6.25-10.18,9.83-16.43,12.26-8.51,3.31-17.36,5.78-26.34,7.46-18.05,3.39-36.77,3.47-54.83.14-3.9-.72-8.6-1.29-11.65-4.08-2.5-2.29-3.25-5.79-2.74-9.05,1.26-7.95,8.51-12.18,15.52-14.59,8.71-2.99,17.92-4.98,27.01-6.38s19.06-2,28.59-1.27c2.38.18,4.75.45,7.11.8,1.89.28,2.7-2.61.8-2.89h0Z"/><path class="cls-1" d="m66.87,14.06c-2.59.29-5.14.74-7.65,1.44-2.1.58-4.7,1.18-5.84,3.26-.95,1.74-.28,3.81,1.42,4.76,1.88,1.05,4.36.88,6.43.83,5.26-.13,10.46-1.07,15.62-2.04,2.3-.43,5.02-.74,7.05-2,1.77-1.09,2.49-3.54.41-4.77-1.07-.63-2.53-.77-3.74-.93-1.4-.19-2.81-.27-4.23-.3-3.12-.07-6.24-.06-9.36-.09-1.93-.02-1.93,2.98,0,3,2.49.02,4.98.04,7.47.06s4.78.02,7.11.52c.31.07.61.14.91.22.45.23.46.1.04-.38-.12-.05-1.32.58-1.52.64-1.02.33-2.07.56-3.12.78-2.44.49-4.9.94-7.36,1.34s-4.88.71-7.34.86c-1.21.07-2.43.11-3.65.09-.93-.01-1.95.04-2.84-.28-2.48-.89,2.13-2.35,2.86-2.56,2.39-.69,4.84-1.19,7.31-1.46,1.9-.21,1.92-3.21,0-3h0Z"/><path class="cls-1" d="m10.3,32.75c-.79,9.28-.7,21.52,9.19,26.06,2.62,1.2,5.44,1.72,8.29,2.07,3.27.41,6.56.7,9.84,1.02,6.89.68,13.79,1.28,20.71,1.57,24.29,1.04,50.31-2.1,70.06-17.54,2.52-1.97,4.92-4.17,6.58-6.93s2.46-6.06,2.45-9.32c-.02-6.69-2.89-13.07-5.75-18.97-.84-1.74-3.43-.22-2.59,1.51,2.4,4.96,4.84,10.26,5.28,15.82.21,2.7-.06,5.47-1.19,7.96s-3.03,4.55-5.1,6.34c-8.36,7.22-18.93,11.85-29.53,14.65-11.5,3.03-23.41,3.87-35.27,3.63-6.43-.13-12.84-.56-19.24-1.13-3.2-.28-6.41-.6-9.61-.92-2.9-.29-5.83-.49-8.7-1.01s-5.73-1.41-7.91-3.4c-1.79-1.63-2.98-3.74-3.7-6.04-1.54-4.94-1.25-10.29-.81-15.38.16-1.92-2.84-1.91-3,0h0Z"/><path class="cls-1" d="m23.85,58.89c2.86,9.17-2.34,18.17-7.56,25.37-2.72,3.75-5.63,7.39-8.04,11.36-2.27,3.74-4.04,7.8-5.31,11.99-5.32,17.51-2.31,36.32.29,54.03,1.7,11.61,3.51,23.21,5.42,34.79.31,1.9,3.21,1.09,2.89-.8-1.71-10.36-3.34-20.74-4.89-31.13-1.37-9.24-2.82-18.49-3.38-27.82s-.27-18.01,2.09-26.68c1.15-4.23,2.8-8.31,5.01-12.1,2.38-4.08,5.32-7.78,8.1-11.58,5.85-8.01,11.44-18.01,8.25-28.22-.57-1.84-3.47-1.05-2.89.8h0Z"/><path class="cls-1" d="m131.67,43.1c-3.67,9.64,2.83,18.87,8.89,25.78,3.27,3.73,6.49,7.45,9.31,11.54s5.17,8.11,7.34,12.39c9.28,18.33,13.39,38.78,15.32,59.09,1.18,12.42,1.59,24.9,2,37.37.06,1.93,3.06,1.93,3,0-.72-21.78-1.44-43.76-6.22-65.1-4.19-18.75-11.64-37.07-23.93-52-6.34-7.71-17.08-17.05-12.82-28.27.69-1.81-2.21-2.59-2.89-.8h0Z"/><path class="cls-1" d="m11.23,174.58c5.23-4.3,10.89-8.07,16.87-11.25,3.06-1.63,6.19-3.11,9.4-4.41,3-1.22,6.15-2.53,9.32-3.26,3.42-.78,1.99,5.97,1.31,7.5-1.33,2.98-3.83,5.26-6.41,7.16-5.33,3.92-11.28,8.08-17.87,9.45-5.74,1.19-12.7-.56-15.49-6.14-.86-1.73-3.45-.21-2.59,1.51,2.84,5.7,9.57,8.33,15.68,7.96,7.74-.47,14.6-5.12,20.75-9.44,3.06-2.15,6.08-4.58,7.96-7.88,1.74-3.05,2.63-7.05,1.18-10.39-.67-1.55-2-2.82-3.77-2.85s-3.74.89-5.41,1.46c-3.66,1.24-7.25,2.7-10.75,4.33-8,3.74-15.47,8.51-22.29,14.12-1.49,1.23.64,3.34,2.12,2.12h0Z"/><path class="cls-1" d="m50.22,159.02c3.11,2.94,5.92,7.33,2.48,11.14-2.79,3.08-6.8,5.36-10.53,7.1-7.74,3.62-16.62,4.88-25.05,3.5-1.89-.31-2.7,2.58-.8,2.89,7.59,1.25,15.42.63,22.7-1.9,3.68-1.28,7.22-3,10.46-5.17,3.01-2.02,6.64-4.52,7.62-8.23,1.17-4.4-1.72-8.58-4.76-11.46-1.4-1.33-3.53.79-2.12,2.12h0Z"/><path class="cls-1" d="m38.55,175.26l4,2.67c.31.21.8.25,1.16.15s.73-.36.9-.69c.4-.75.16-1.59-.54-2.05l-4-2.67c-.31-.21-.8-.25-1.16-.15s-.73.36-.9.69c-.4.75-.16,1.59.54,2.05h0Z"/><path class="cls-1" d="m45.31,170.79h2c.38,0,.79-.17,1.06-.44.15-.14.25-.3.31-.48.09-.18.14-.37.13-.58-.02-.39-.14-.79-.44-1.06s-.65-.44-1.06-.44h-2c-.38,0-.79.17-1.06.44-.15.14-.25.3-.31.48-.09.18-.14.37-.13.58.02.39.14.79.44,1.06s.65.44,1.06.44h0Z"/><path class="cls-1" d="m49.64,165.23c.08.03.41.09.44.17-.02-.04-.36-.16-.1-.04.07.03.14.07.21.1.26.13.51.26.76.42s.52.32.75.51c-.07-.06-.27-.22-.09-.06.05.04.1.08.15.13.12.1.24.21.35.32.21.2.41.41.6.62.1.11.19.22.28.33.1.12-.24-.31-.04-.05.04.05.08.11.12.16.35.5.64,1.03.88,1.58.14.32.58.6.9.69.36.1.84.05,1.16-.15s.6-.51.69-.9c.1-.42.02-.76-.15-1.16-1.13-2.62-3.44-4.62-6.11-5.56-.74-.26-1.67.3-1.85,1.05-.19.84.25,1.57,1.05,1.85h0Z"/><path class="cls-1" d="m56.49,170.27c2.59-1.15,5.41-1.7,8.22-1.98,2.66-.26,5.4-.46,8.07-.33,2.19.1,4.46.83,5.04,3.19.49,2.02-.29,4.23-1.69,5.7-1.69,1.78-4,2.81-6.29,3.59-2.76.95-5.59,1.71-8.43,2.36-5.82,1.33-11.76,2.09-17.73,2.26-.87.02-1.74.04-2.61.04-.63,0-1.65.16-2.26-.1-.99-.43-1.13-2.16-1.15-3.11-.05-2.51,1.09-5.05,3.13-6.55,1.54-1.13.04-3.74-1.51-2.59-2.31,1.7-3.94,4.15-4.43,7-.44,2.54-.21,6.35,2.31,7.78,1.35.77,3.14.58,4.63.57,1.9-.02,3.8-.09,5.7-.22,3.77-.26,7.53-.75,11.24-1.45s7.13-1.56,10.6-2.65c2.99-.94,6.02-2.11,8.37-4.25,3.99-3.64,4.84-11.21-.86-13.72-3.15-1.38-7.02-.88-10.36-.65-3.97.27-7.85.91-11.51,2.53-1.76.78-.24,3.37,1.51,2.59h0Z"/><path class="cls-1" d="m78.99,171.75c1.51,5.28,2.35,10.71,2.47,16.2.04,1.93,3.04,1.93,3,0-.13-5.75-.99-11.47-2.58-17-.53-1.85-3.43-1.06-2.89.8h0Z"/><path class="cls-1" d="m74.13,182.66c.45.89.9,1.77,1.35,2.66.17.32.55.59.9.69s.84.05,1.16-.15.6-.51.69-.9c.09-.41.04-.78-.15-1.16-.45-.89-.9-1.77-1.35-2.66-.17-.32-.55-.59-.9-.69s-.84-.05-1.16.15-.6.51-.69.9c-.09.41-.04.78.15,1.16h0Z"/><path class="cls-1" d="m68.49,185.47c-.06-.14-.1-.25-.03-.04.02.06.04.12.06.18.04.14.08.28.12.42s.06.29.08.43c.04.2-.03-.31-.02-.11,0,.08.02.16.02.24.02.29.01.58-.01.87,0,.06-.02.13-.02.19,0-.14.05-.3,0-.06-.02.14-.05.29-.09.43-.07.27-.16.53-.25.79-.06.18.14-.29.02-.04-.03.06-.05.12-.08.18-.06.13-.13.26-.21.38s-.15.25-.24.37c-.03.04-.2.27-.06.08.14-.18,0,0-.03.04-.2.24-.42.45-.65.65-.6.51-.56,1.6,0,2.12.64.59,1.48.55,2.12,0,1.15-.98,1.96-2.4,2.3-3.86.37-1.64.2-3.24-.45-4.78-.14-.32-.58-.6-.9-.69-.36-.1-.84-.05-1.16.15s-.6.51-.69.9c-.1.42-.01.76.15,1.16h0Z"/><path class="cls-1" d="m140.72,149.31c-1.09,12.65-7.69,24.52-17.49,32.5-2.82,2.3-5.94,4.22-9.22,5.78-1.74.83-.22,3.42,1.51,2.59,12.22-5.8,21.64-16.83,25.91-29.62,1.22-3.65,1.96-7.42,2.29-11.25.17-1.92-2.84-1.91-3,0h0Z"/><path class="cls-1" d="m141.35,151.28c2.92,2.57,6.46,4.29,10.32,4.82,1.85.26,4.05.09,5.68,1.15,1.83,1.2,1.04,2.86.18,4.45-2.19,4.02-4.39,8.03-6.59,12.05-1.95,3.56-3.73,7.45-6.47,10.49-3.02,3.34-7.23,5.17-11.28,6.94-1.77.77-.24,3.36,1.51,2.59,3.91-1.71,7.89-3.5,11.01-6.5s5.15-7.11,7.23-10.92c2.43-4.45,4.89-8.88,7.3-13.34.96-1.77,1.77-3.72.94-5.71-.7-1.68-2.25-2.81-3.93-3.38-2.38-.81-4.99-.56-7.41-1.26s-4.52-1.88-6.36-3.5c-1.44-1.27-3.57.84-2.12,2.12h0Z"/><path class="cls-1" d="m142.08,169.3c-2.54,3.25-5.08,6.49-7.61,9.74-.92,1.18-1.65,2.45-1.82,3.97s.49,2.88,1.92,3.4c1.72.62,3.54-.48,4.96-1.38s2.62-1.9,3.7-3.08c2.11-2.29,3.83-5.2,4.47-8.27.41-1.96.2-4.27-1.63-5.45-1.6-1.04-3.58-.75-4.72.77-.49.65-.1,1.68.54,2.05.77.45,1.56.11,2.05-.54-.13.17.12.09.23.12.29.08.48.24.61.56.39,1.03-.09,2.32-.43,3.3-.72,2.09-1.95,4.01-3.47,5.6-.78.81-1.64,1.55-2.58,2.18-.81.54-1.88,1.24-2.75,1.33.02,0,.1.06.09.07-.05.09-.14-.24-.03-.03.06.12,0,0,0-.11,0-.36.08-.71.26-1.16.39-.95,1.18-1.8,1.82-2.62,2.16-2.77,4.33-5.54,6.49-8.32.5-.64.62-1.5,0-2.12-.52-.52-1.62-.64-2.12,0h0Z"/></g></svg>