<?xml version="1.0" encoding="UTF-8"?><svg id="Calque_2" xmlns="http://www.w3.org/2000/svg" viewBox="0 0 52.03 65.65"><defs><style>.cls-1{stroke-width:0px;}</style></defs><g id="Calque_1-2"><path class="cls-1" d="m18.06,2.85c3.99,2.74,5.39,7.63,4.13,12.17-.68,2.44-1.8,4.72-2.57,7.13-.71,2.21-1.1,4.53-1.18,6.85-.35,9.43,4.44,18.51,12.54,23.38,3.9,2.35,8.4,3.7,12.95,3.82,2.33.06,4.53-.23,5.47-2.66.85-2.21,1.23-4.72,1.65-7.04,1.68-9.4,1.65-19.72-3.47-28.12C41.72,8.8,30.48,2.72,19.7.64c-1.89-.36-2.69,2.53-.8,2.89,9.11,1.75,18.2,6.33,24.13,13.61s6.71,16.78,5.57,25.67c-.29,2.27-.73,4.53-1.25,6.76-.22.94-.38,1.95-.73,2.86-.42,1.09-1.91.8-2.89.77-4.22-.14-8.36-1.53-11.9-3.81-7.41-4.78-11.33-13.65-10.24-22.36.64-5.12,3.8-9.56,4.09-14.74.27-4.78-2.22-9.35-6.11-12.03-1.6-1.1-3.1,1.5-1.51,2.59h0Z"/><path class="cls-1" d="m18.56,3.01c10.09,13.35,17.42,28.67,21.44,44.92,1.13,4.58,2.01,9.22,2.6,13.9.24,1.89,3.24,1.91,3,0-2.15-16.99-7.7-33.46-16.37-48.24-2.45-4.19-5.16-8.22-8.08-12.09-1.15-1.52-3.76-.03-2.59,1.51h0Z"/><path class="cls-1" d="m34.3,30s-.57-.23-.3-.12c-.18-.07-.35-.15-.52-.23-.35-.15-.69-.31-1.04-.48-.64-.31-1.28-.63-1.9-.98-1.29-.71-2.54-1.5-3.74-2.35-.64-.46-1.7-.14-2.05.54-.41.77-.15,1.57.54,2.05,2.56,1.81,5.32,3.28,8.22,4.45.73.3,1.68-.32,1.85-1.05.2-.87-.27-1.53-1.05-1.85h0Z"/><path class="cls-1" d="m34.82,41c-.76-.18-1.51-.39-2.25-.64-.32-.11-.65-.23-.96-.35-.18-.07-.36-.14-.54-.22.25.1-.27-.12-.31-.14-1.38-.62-2.7-1.37-3.95-2.23-.65-.45-1.69-.14-2.05.54-.4.76-.15,1.57.54,2.05,2.63,1.82,5.63,3.15,8.74,3.88.76.18,1.66-.24,1.85-1.05s-.23-1.65-1.05-1.85h0Z"/><path class="cls-1" d="m42.89,31.56c1.15-3.55,1.67-7.3,1.52-11.03-.03-.81-.67-1.5-1.5-1.5-.79,0-1.53.69-1.5,1.5.14,3.49-.33,6.91-1.41,10.23-.25.77.29,1.64,1.05,1.85.81.22,1.59-.27,1.85-1.05h0Z"/><path class="cls-1" d="m41.15,42.89l-.74,1.08c-.42.61-.17,1.52.39,1.94s1.46.45,1.97-.12c2.81-3.11,5.18-6.6,6.99-10.37.35-.73.2-1.62-.54-2.05-.66-.38-1.7-.2-2.05.54-1.72,3.58-3.9,6.86-6.52,9.76l2.36,1.82.74-1.08c.46-.67.12-1.67-.54-2.05-.75-.44-1.59-.13-2.05.54h0Z"/><path class="cls-1" d="m.38,18.18c2.7,3.16,5.55,6.47,7.02,10.42,1.58,4.25.85,8.72,1.25,13.14.36,4,1.82,7.61,4.8,10.37,2.73,2.53,6.24,4.19,9.87,4.93,5.27,1.09,10.65.56,15.94-.01,1.9-.2,1.92-3.21,0-3-7.86.85-17.2,1.84-23.56-3.92-3.06-2.77-4.05-6.34-4.16-10.37s.17-8.35-1.39-12.32c-1.69-4.31-4.67-7.88-7.64-11.36-1.25-1.47-3.37.66-2.12,2.12H.38Z"/><path class="cls-1" d="m2.46,20.06c3.05,2.6,4.51,6.76,8.05,8.84,1.81,1.07,3.84,1.18,5.88,1.19,1.41,0,3.55-.25,4.32,1.21.9,1.71,3.49.19,2.59-1.51-1.01-1.9-2.98-2.51-5-2.65-1.88-.13-3.98.25-5.75-.54-1.67-.75-2.84-2.34-3.89-3.77-1.25-1.71-2.45-3.5-4.08-4.89-1.46-1.24-3.59.87-2.12,2.12h0Z"/><path class="cls-1" d="m10.93,35.61c10.45,8.5,19.75,18.38,27.54,29.38,1.11,1.56,3.71.07,2.59-1.51-7.95-11.21-17.35-21.31-28.01-29.98-1.49-1.21-3.62.9-2.12,2.12h0Z"/><path class="cls-1" d="m21.69,47.23l-6.62-2.14c-.75-.24-1.67.28-1.85,1.05-.19.82.25,1.59,1.05,1.85l6.62,2.14c.75.24,1.67-.28,1.85-1.05.19-.82-.25-1.59-1.05-1.85h0Z"/><path class="cls-1" d="m28.02,51.76c-.06.08-.11.17-.18.25l.23-.3c-.24.31-.51.58-.81.82l.3-.23c-.32.25-.67.45-1.04.61l.36-.15c-.37.16-.76.27-1.16.33l.4-.05c-.26.03-.52.05-.79.04-.78-.03-1.54.71-1.5,1.5.04.84.66,1.47,1.5,1.5,2.11.08,4.12-1.04,5.27-2.78.21-.31.25-.8.15-1.16s-.36-.73-.69-.9c-.75-.4-1.59-.16-2.05.54h0Z"/></g></svg>