<?xml version="1.0" encoding="UTF-8"?><svg id="Calque_2" xmlns="http://www.w3.org/2000/svg" viewBox="0 0 294.43 354.47"><defs><style>.cls-1{stroke-width:0px;}</style></defs><g id="Calque_1-2"><path class="cls-1" d="m69.83,189.44c-4.37-1.35-8.98.06-12.48,2.84-3.74,2.97-5.87,7.48-7.2,11.97s-2.73,9.92-.08,14.2c2.42,3.91,6.74,6.68,10.97,8.24,8.74,3.22,18.8.88,25.34-5.73,3.37-3.41,5.66-7.87,6.17-12.66.47-4.37-.92-8.72-3.57-12.19-6.89-9.05-18.89-10.23-29.29-7.9-1.88.42-1.09,3.31.8,2.89,7.98-1.78,17.22-1.55,23.64,4.16,2.67,2.37,4.67,5.46,5.32,9.01.75,4.11-.6,8.37-2.88,11.77-4.39,6.54-12.71,10.13-20.47,8.88-3.88-.63-7.64-2.29-10.62-4.87-1.5-1.3-2.98-2.83-3.58-4.77-.66-2.14-.23-4.47.24-6.61.96-4.39,2.35-9,5.39-12.43,2.84-3.19,7.27-5.21,11.51-3.9,1.85.57,2.64-2.32.8-2.89h0Z"/><path class="cls-1" d="m51.2,209.07c.62,3.37,2.84,6.09,5.47,8.15,2.87,2.25,6.24,4.07,9.75,5.09s7.1,1.06,10.46-.18c3.05-1.12,5.69-3.04,8-5.29,2.71-2.65,4.96-5.73,7.13-8.83,1.11-1.58-1.49-3.09-2.59-1.51-3.93,5.61-8.91,12.53-16.25,13.49-4.22.55-8.39-1.17-11.95-3.28-3.24-1.93-6.41-4.54-7.12-8.43-.35-1.9-3.24-1.09-2.89.8h0Z"/><path class="cls-1" d="m56.65,232.12c7,4.58,16.06,5.69,23.95,2.9l-1.46-2.51c-2.81,2.86-6.79,3.87-10.56,4.82-1.01.26-1.56,1.79-.66,2.51,2.01,1.59,4.36,2.46,6.95,2.38l-1.5-1.5c-.06.5-.5.89-.94,1.04-1.82.61-1.04,3.51.8,2.89s2.9-2.03,3.15-3.93c.1-.79-.77-1.52-1.5-1.5-1.74.05-3.44-.41-4.83-1.5l-.66,2.51c4.28-1.09,8.7-2.35,11.88-5.59,1-1.01,0-3.02-1.46-2.51-7.2,2.55-15.24,1.59-21.64-2.59-1.62-1.06-3.13,1.54-1.51,2.59h0Z"/><path class="cls-1" d="m197.1,192.25c-9.42-2.95-18.33,3.57-22.43,11.71-1.99,3.95-3.51,8.55-2.97,13.03s3.44,7.89,7.61,9.71c2.06.9,4.22,1.49,6.38,2.07,2.57.69,5.16,1.37,7.79,1.81,4.71.79,9.71.96,14.03-1.39,6.77-3.7,10.13-12.14,8.84-19.57-1.63-9.36-10.21-16.23-19.1-18.27-1.88-.43-2.68,2.46-.8,2.89,6.85,1.57,13.43,6.12,16.06,12.83,2.39,6.09.8,13.39-4.08,17.81-6.47,5.85-16.41,2.56-23.77.5-3.49-.98-7.43-2.28-9.16-5.76s-.8-7.75.47-11.19c3.01-8.15,10.87-16.25,20.33-13.29,1.85.58,2.64-2.32.8-2.89h0Z"/><path class="cls-1" d="m172.99,216.31c6.77,4.85,14.35,9.06,22.7,10.26,7.71,1.11,15.7-.39,21.89-5.28,1.51-1.2-.62-3.3-2.12-2.12-5.58,4.41-13.27,5.55-20.14,4.32-7.67-1.37-14.55-5.29-20.82-9.77-1.57-1.13-3.07,1.47-1.51,2.59h0Z"/><path class="cls-1" d="m176.15,231.86c7.32,4.62,15.84,7.12,24.5,7.22l-.4-2.95c-3.83,1.08-7.67,2.15-11.5,3.23-1.44.4-1.41,2.48,0,2.89.99.29,2.24.59,2.94,1.42.23.28.33.51.25.86-.04.16-.12.3-.22.43-.15.19-.26.05,0,.17-1.74-.79-3.27,1.79-1.51,2.59,2.44,1.11,4.79-.95,4.79-3.49,0-2.89-3.13-4.2-5.44-4.88v2.89c3.83-1.08,7.67-2.15,11.5-3.23,1.63-.46,1.3-2.93-.4-2.95-8.15-.09-16.09-2.45-22.98-6.81-1.64-1.03-3.14,1.56-1.51,2.59h0Z"/><path class="cls-1" d="m151.24.26c-9.45,6.43-19.13,13.07-26.39,22.01s-11.25,20.54-11.15,32.53c.05,6.16.97,12.3,2.39,18.29.73,3.1,1.61,6.17,2.58,9.21.77,2.39,2.12,5.02,1.93,7.6-.24,3.25-4.08,1.43-6,.67-2.47-.98-4.82-2.35-6.91-3.98-4.07-3.17-7.35-7.4-9.37-12.15-2.61-6.16-2.37-12.57-1.79-19.1s1.17-13.73-1.81-20.13c-.41-.88-1.73-.94-2.36-.3-7.97,8.15-10.63,19.45-11.32,30.51-.37,5.87-.2,11.75,0,17.62.25,7.36.5,14.71.75,22.07.13,3.68.25,7.36.38,11.04s.47,7.19-.14,10.69c-1.12,6.42-6.61,11.38-10.97,15.85-8.32,8.54-17.46,16.21-26.38,24.1-8.82,7.8-17.5,15.87-24.78,25.16s-13.11,20.09-16.36,31.72c-6.72,23.98-3.56,50.08,7,72.46,10.12,21.43,26.63,39.43,45.81,53.13,2.42,1.73,4.89,3.39,7.4,4.99,1.63,1.04,3.14-1.55,1.51-2.59-19.79-12.61-37.14-29.52-48.59-50.13C4.84,280.21,0,254.95,4.86,230.93c2.4-11.82,7.18-22.92,14.12-32.78s15.06-17.75,23.66-25.54,17.75-15.35,26.19-23.5c4.21-4.06,8.48-8.26,12.03-12.93,1.87-2.46,3.38-5.19,3.99-8.24.67-3.32.48-6.72.36-10.07-.47-13.87-1.14-27.75-1.38-41.63-.19-11,.21-22.92,5.76-32.74,1.34-2.38,2.97-4.53,4.88-6.48l-2.36-.3c2.81,6.02,1.9,12.84,1.35,19.23-.51,5.94-.69,11.88,1.3,17.59,3.44,9.87,11.86,18.35,22.13,20.94,2.32.59,4.82.37,6.06-1.95,1.03-1.93.69-4.45.11-6.46-1.77-6.22-3.94-12.22-5.12-18.61-2.35-12.75-1.7-26.22,5.14-37.54s18.65-19.57,29.66-27.06c1.59-1.08.09-3.68-1.51-2.59h0Z"/><path class="cls-1" d="m125.51,280.47c-6.65-.45-13.61.97-18.93,5.17-4.81,3.8-7.73,10.14-6.92,16.28s5.06,10.27,10.43,12.48,11.59,2.46,17.45,2.06c7.06-.48,14.7-1.6,21.44,1.19,3.35,1.39,6.1,3.8,8.54,6.42,2.27,2.44,4.24,5.6,7.52,6.76,2.91,1.03,6.36-.1,7.35-3.19s-.67-6.09-2.68-8.2c-1.16-1.21-2.49-2.26-3.57-3.54s-1.71-2.9-2-4.59c-.57-3.35-.12-6.79-.65-10.16-1.09-6.86-7.02-11.22-12.72-14.35-6.53-3.58-13.71-5.85-21.1-6.74-1.82-.22-3.64-.34-5.47-.39-1.93-.05-1.93,2.95,0,3,6.9.17,13.77,1.62,20.13,4.32,3.02,1.28,5.96,2.83,8.68,4.66,2.41,1.62,4.71,3.58,6.17,6.13,3.1,5.39.47,12.05,3.09,17.62,1.35,2.88,4.05,4.5,5.98,6.91,1.26,1.57,2.53,5.49-.55,5.9s-5.22-3.05-6.94-5c-2.12-2.41-4.43-4.69-7.12-6.45-5.63-3.69-12.47-4.11-19.01-3.78-5.85.3-11.75,1.2-17.59.25-4.79-.78-9.94-2.65-12.68-6.92-3.41-5.31-1.78-12.38,2.39-16.79,4.76-5.03,12.08-6.5,18.74-6.05,1.93.13,1.92-2.87,0-3h0Z"/><path class="cls-1" d="m150,2.43c-11.55,13.26-17.54,34.08-6.78,49.6,5.56,8.02,13.91,13.6,19.25,21.8s8.36,18.63,9.3,28.71c1.24,13.32-.56,26.68-2.35,39.87-.15,1.11,1.01,2.57,2.2,1.69,13.89-10.22,29.33-22.05,32.1-40.29.64-4.19.51-8.46-.57-12.56s-3.19-8.25-5.18-12.18-3.7-7.49-4.77-11.57-1.44-7.96-1.31-12.01c.3-9.18,3.55-18.27,9.37-25.4l-2.51-.66c3.14,22.54,13.32,43.31,25.32,62.4,12.32,19.59,26.77,37.75,38.97,57.42,6.16,9.93,11.77,20.26,16.06,31.15,4.33,10.98,7.35,22.44,9.31,34.07,3.83,22.7,3.98,46.36,1.46,69.22-2.15,19.53-7.27,40.18-20.75,55.14-1.6,1.78-3.32,3.46-5.11,5.04-1.45,1.28.68,3.39,2.12,2.12,15.14-13.36,22.21-33.04,25.4-52.49,1.73-10.53,2.46-21.21,2.76-31.87.34-12.07,0-24.16-1.35-36.16-1.34-11.96-3.63-23.83-7.24-35.32-3.52-11.22-8.35-21.96-14.07-32.23-11.45-20.54-26.04-39.07-39.1-58.56-12.79-19.09-24.47-39.58-29.4-62.25-.61-2.8-1.1-5.63-1.5-8.46-.15-1.08-1.84-1.48-2.51-.66-9.95,12.17-13.12,29.51-7.57,44.31,3.06,8.16,8.82,15.48,9.48,24.41s-2.97,17.61-8.27,24.58c-6.17,8.12-14.53,14.25-22.67,20.24l2.2,1.69c2.88-21.13,5.7-43.51-3.31-63.62-1.99-4.46-4.58-8.62-7.73-12.35s-6.68-6.88-10.03-10.32-6.41-7.11-8.32-11.51c-1.76-4.07-2.47-8.52-2.35-12.93.28-10.26,4.87-20.24,11.55-27.91,1.26-1.45-.85-3.58-2.12-2.12h0Z"/></g></svg>