<?xml version="1.0" encoding="UTF-8"?><svg id="Calque_2" xmlns="http://www.w3.org/2000/svg" viewBox="0 0 49.61 76.95"><defs><style>.cls-1,.cls-2{stroke-width:0px;}.cls-2{fill:#fff;}</style></defs><g id="Calque_1-2"><path class="cls-2" d="m15.84,16.73l.79,11.52c.06.93.12,1.88-.12,2.78-.72,2.68-3.68,3.93-5.98,5.49C3.45,41.32,1.55,50.91,1.57,59.46c0,3.26.24,6.67,1.9,9.48,1.98,3.35,5.74,5.34,9.56,6.07s7.76.38,11.63.02c5.91-.55,11.82-1.09,17.73-1.64.81-.07,1.65-.16,2.32-.61.82-.55,1.23-1.52,1.56-2.45,4.38-12.46.73-27.35-8.92-36.36-.69-.64-1.42-1.28-1.89-2.09-.52-.9-.69-1.96-.85-2.99-.6-3.88-1.21-7.76-1.81-11.64-.15-.94-.34-1.96-1.05-2.59-.62-.54-1.49-.66-2.32-.71-4.28-.26-8.62.7-12.4,2.72"/><path class="cls-1" d="m14.34,16.73c.25,3.68.51,7.36.75,11.04.1,1.52.28,2.98-.77,4.22-.9,1.06-2.19,1.75-3.35,2.47-4.66,2.89-7.64,7.19-9.24,12.4S-.39,58.24.31,63.74c.39,3.11,1.47,6.06,3.7,8.33,2.02,2.06,4.74,3.43,7.52,4.15,3.22.83,6.58.83,9.87.6,3.72-.26,7.43-.66,11.15-1s7.45-.42,11.06-1.05c3.13-.55,4.04-3.42,4.78-6.13,2.99-10.87.41-23.02-6.49-31.88-.98-1.26-2.05-2.46-3.21-3.57-1.26-1.21-2.17-2.12-2.5-3.9-.77-4.11-1.25-8.28-1.94-12.41-.24-1.43-.7-2.89-2.02-3.69-1.43-.87-3.39-.79-5.01-.73-3.83.14-7.55,1.18-10.94,2.95-1.71.9-.2,3.49,1.51,2.59,2.78-1.46,5.84-2.35,8.98-2.52,1.03-.06,3.06-.4,3.94.3.42.34.49,1.05.59,1.54.17.92.29,1.85.44,2.78.51,3.26.96,6.54,1.53,9.79.22,1.25.6,2.41,1.37,3.43.86,1.13,2,2.01,2.98,3.04,7,7.35,10.27,18.23,8.6,28.24-.2,1.21-.47,2.42-.81,3.6s-.62,2.97-1.8,3.5c-.64.29-1.51.24-2.19.31-.82.08-1.64.15-2.46.23-1.72.16-3.45.32-5.17.48-3.35.31-6.69.63-10.04.93s-6.6.58-9.84.03c-2.54-.43-5.11-1.36-7.08-3.07-2.17-1.89-3.21-4.45-3.55-7.27-.62-5.11-.15-10.73,1.36-15.65.77-2.53,1.92-5.01,3.63-7.05,1.8-2.15,4.11-3.32,6.34-4.92,1.12-.8,2.19-1.73,2.85-2.97.75-1.41.78-2.92.69-4.48-.24-3.84-.52-7.68-.79-11.52-.13-1.92-3.13-1.93-3,0h0Z"/><path class="cls-1" d="m16.91,13.91c-1.91-1.42-1.82-4.37-.73-6.23,1.41-2.41,4.21-3.92,6.86-4.5s5.43.34,6.87,2.74c1.36,2.27.94,5.23-.87,7.13-1.33,1.4.79,3.53,2.12,2.12,2.12-2.23,3.03-5.43,2.3-8.44-.69-2.84-2.89-5.13-5.58-6.18-3.04-1.18-6.5-.35-9.3,1.09-2.6,1.33-4.93,3.53-5.81,6.38-.96,3.1.01,6.54,2.63,8.48.65.48,1.67.11,2.05-.54.45-.76.11-1.57-.54-2.05h0Z"/></g></svg>