<?xml version="1.0" encoding="UTF-8"?><svg id="Calque_2" xmlns="http://www.w3.org/2000/svg" viewBox="0 0 42.3 58.89"><defs><style>.cls-1,.cls-2{stroke-width:0px;}.cls-2{fill:#fff;}</style></defs><g id="Calque_1-2"><path class="cls-2" d="m2.61,13.13c2.33,2.06,3.7,5.16,3.66,8.27-.04,2.71-1.08,5.3-1.92,7.88-1.85,5.66-2.81,11.61-2.82,17.56,0,1.22.04,2.47.42,3.63.49,1.47,1.51,2.72,2.7,3.71,3.2,2.65,7.61,3.48,11.75,3.09s8.08-1.89,11.93-3.47c4.73-1.95,9.83-4.48,11.73-9.23,2.2-5.51-.77-11.62-3.8-16.72s-6.34-10.89-4.77-16.61"/><path class="cls-1" d="m1.55,14.19c3.06,2.81,3.75,6.67,2.68,10.59-.56,2.07-1.35,4.07-1.94,6.13s-1.09,4.25-1.44,6.42-.62,4.46-.73,6.7C0,46.12-.16,48.38.38,50.44c.96,3.64,4.31,6.1,7.68,7.36,7.71,2.87,16.2-.43,23.24-3.64,3.15-1.43,6.26-3.26,8.41-6.03,2.37-3.05,3-6.82,2.32-10.57-.86-4.66-3.51-8.68-5.8-12.73s-4.47-8.52-3.29-13.18c.47-1.87-2.42-2.67-2.89-.8-2.04,8.05,3.6,14.72,6.96,21.46,1.67,3.36,3.05,7.32,1.9,11.06-.99,3.22-3.77,5.38-6.61,6.94-3.21,1.76-6.73,3.14-10.22,4.23-3.71,1.16-7.67,1.81-11.5.88-3.34-.81-7.07-3-7.48-6.74-.45-4.04.18-8.45.97-12.41.46-2.3,1.06-4.57,1.8-6.8s1.49-4.26,1.78-6.52c.52-4.06-.97-8.11-3.98-10.88-1.42-1.3-3.55.81-2.12,2.12h0Z"/><path class="cls-1" d="m26.94,26.49c-2.35.27-3.92,1.99-5.07,3.94s-1.82,4.31-1.35,6.61c.41,2,1.92,3.75,3.81,4.51,2.23.9,4.35-.06,6.09-1.49,3.11-2.56,4.54-7.28,1.98-10.73-1.25-1.68-3.95-3.43-5.79-1.53-1.52,1.58-1.92,4.2-1.35,6.25.33,1.21,1.04,2.42,2.24,2.93,1.37.59,2.8-.03,3.62-1.21.72-1.04.8-2.54.7-3.77-.12-1.58-1.07-2.9-2.74-2.99-.84-.05-1.46.73-1.5,1.5,0,.16-.18.5-.26.71-.13.35-.2.74-.19,1.12.01.92.55,1.84,1.45,2.13,1.81.58,3.49-1.75,2.05-3.17s-3.5.77-2.12,2.12l.08.08-.39-.66c.11-1.36.74-1.58,1.9-.68l.02.09c-.03.14-.02.12.02-.06.03-.09.06-.18.1-.28.19-.48.3-.89.33-1.42l-1.5,1.5c-.41-.02-.24-.24-.25.09,0,.28,0,.56,0,.84,0,.3,0,.6-.09.89-.07.24-.19.36-.26.43.03-.03.24-.03.22.01-.02.03-.37-.48-.41-.58-.22-.5-.3-1.07-.28-1.64.01-.47.13-1.01.33-1.46.02-.05.38-.68.39-.67-.05-.04-.2,0-.23.04.02-.03.32.12.32.12.91.44,1.47,1.28,1.75,2.22s.22,2.03-.22,3.04c-.48,1.1-1.31,2.07-2.28,2.76-.52.37-1.09.75-1.74.82.14-.02-.57-.05-.39-.02-.31-.05-.58-.16-.76-.26-.91-.49-1.56-1.37-1.76-2.41-.26-1.38.23-2.83.89-4.02.36-.65.77-1.29,1.28-1.83.38-.4.91-.85,1.35-.9.8-.09,1.5-.62,1.5-1.5,0-.74-.69-1.59-1.5-1.5h0Z"/><path class="cls-1" d="m11.88,21.13l-.17-.08c.14.08.12.06-.06-.07.24.22-.13-.29.01,0s-.07-.33,0,.01.04-.34,0,0,.13-.32.01,0,.2-.3,0,.03c-.06.1-.15.14.03-.03-.05.06-.1.11-.16.16.16-.11.17-.12.03-.03-.06.03-.4.2-.06.06-.11.04-.22.08-.34.11l-.11.03c-.17.03-.15.03.05,0-.02.02-.32.03-.34,0,.02.02.28.08.06,0-.11-.04-.35-.18-.05,0l.13.11c-.11-.12-.1-.1.03.06.05.07.08.16.09.25-.03.18-.02.18.02,0l-.05.1c.04-.07.08-.15.12-.22.15-.31-.21.19.04-.05.05-.05.11-.1.16-.16.23-.26-.25.14.04-.04.09-.06.19-.11.29-.17.3-.19-.29.08.05-.03.11-.03.21-.07.32-.1.07-.02.15-.04.22-.05.17-.03.15-.03-.06,0,.13-.07.43,0,.57-.01.37,0-.31-.08.05,0,.12.03.24.05.36.09s.25.08.37.12c-.32-.12.07.04.11.06.23.12.45.26.66.41.34.24-.2-.2.11.09.1.09.2.17.29.26.19.18.37.37.54.58.03.03.29.37.09.1.07.09.13.18.19.27.16.24.3.49.42.75-.14-.3.03.08.04.13.04.12.07.25.1.37.1.36.03-.27,0,.1,0,0,0,.41.01.17s-.04.15-.04.16c-.06.33.14-.16-.04.1-.05.07-.27.33-.03.07-.11.11-.21.22-.33.32.28-.24-.02,0-.08.03-.1.06-.21.12-.31.17-.07.04-.14.07-.22.1.34-.15-.03,0-.09.02-.53.18-1.07.3-1.62.39.29-.05.06,0,0,0-.13.01-.27.02-.4.03-.26.01-.53.01-.79,0-.05,0-.49-.05-.12,0-.13-.02-.26-.04-.38-.07-.25-.06-.5-.13-.74-.23.32.13-.07-.04-.11-.07-.13-.07-.34-.16-.44-.28.25.29.06.04-.01-.03-.08-.07-.24-.2-.28-.3.07.2.12.18.05.05s-.15-.23-.21-.36l-.05-.09c-.07-.15-.06-.13.03.07-.06-.03-.11-.33-.12-.39,0-.02-.08-.29-.06-.3.03.23.03.26.02.1,0-.07,0-.13,0-.2,0-.07,0-.13,0-.2.01-.17,0-.13-.02.1.01-.06.02-.13.04-.19,0-.02.08-.28.08-.28-.09.21-.11.24-.04.09.03-.06.06-.11.09-.17.18-.3-.01-.02,0,0-.02-.02.26-.25.29-.27.61-.5.56-1.61,0-2.12-.65-.59-1.47-.53-2.12,0-1.18.97-1.48,2.57-1.22,4s1.2,2.68,2.46,3.37c1.5.82,3.2.89,4.85.64,1.42-.22,3.04-.72,4.01-1.85,2.4-2.83-.33-6.94-3.13-8.29-1.54-.74-3.2-.83-4.76-.1s-2.97,2.89-1.87,4.55c1.17,1.77,3.97,1.48,5.33.1,1.53-1.55,1.04-4.27-1.08-4.97-.75-.25-1.67.29-1.85,1.05-.19.83.25,1.58,1.05,1.85h0Z"/><path class="cls-1" d="m24.93,0c-5.59.16-11.39.37-16.64,2.49-2.36.96-4.9,2.24-6.41,4.36s-1.5,5.11.55,6.8,5.39,1.68,7.89,1.84c2.95.18,5.92.05,8.85-.35s5.85-1.07,8.66-2.05c2.27-.79,5.44-1.65,6.89-3.73,1.76-2.52.09-5.51-2.08-7.11C30.11.38,26.95-.19,23.89.29c-1.9.3-1.09,3.19.8,2.89,1.99-.31,4.07.13,5.78,1.2,1.54.97,2.93,2.82.88,4.01-3.74,2.17-8.51,3.27-12.76,3.83-2.21.29-4.46.4-6.69.34s-4.4-.14-6.46-.71c-2.29-.64-1.75-2.82-.31-4.13,1.52-1.38,3.61-2.28,5.54-2.91,4.6-1.51,9.48-1.67,14.27-1.81,1.93-.06,1.93-3.06,0-3h0Z"/></g></svg>