<?xml version="1.0" encoding="UTF-8"?><svg id="Calque_2" xmlns="http://www.w3.org/2000/svg" viewBox="0 0 345.25 498.29"><defs><style>.cls-1{stroke-width:0px;}</style></defs><g id="Calque_1-2"><path class="cls-1" d="m52.77,61.44c36.33-16.3,74.25-28.66,112.37-40.01,9.37-2.79,18.77-5.52,28.16-8.24s19.31-5.78,29.16-7.87,19.54-3.08,29.37-1.85,19.22,4.39,28.44,7.78c21.18,7.78,42,16.57,62.4,26.21l.76-2.8c-21.8,2.33-43.49,5.61-65,9.84s-43.15,9.5-64.36,15.67-41.95,13.22-62.43,21.2c-10.22,3.98-20.36,8.19-30.4,12.62-4.96,2.19-9.9,4.43-14.81,6.73-2.55,1.19-5.09,2.4-7.62,3.62-2.4,1.15-4.77,2.46-7.33,3.23-5.51,1.65-11.11-1.29-16.23-3.1-5.65-2-11.29-4-16.94-6-11.29-4-22.59-8-33.88-12-2.77-.98-5.54-1.96-8.32-2.95l.36,2.74c14-6.19,26.84-14.8,37.9-25.38,1.4-1.34-.73-3.46-2.12-2.12-10.88,10.41-23.52,18.83-37.29,24.92-1.29.57-.73,2.36.36,2.74,11.29,4,22.59,8,33.88,12,5.65,2,11.29,4,16.94,6s11.01,4.15,16.62,5.84c2.48.75,5.03,1.1,7.6.66s4.78-1.48,7.03-2.56c4.96-2.38,9.93-4.77,14.93-7.07,10.1-4.64,20.3-9.06,30.6-13.24,20.47-8.3,41.3-15.69,62.42-22.15s42.53-11.97,64.14-16.53,43.75-8.21,65.85-10.81c2.69-.32,5.39-.62,8.08-.91,1.31-.14,2.25-2.09.76-2.8-18.38-8.69-37.09-16.67-56.1-23.89-9.28-3.53-18.63-7.07-28.36-9.17s-19.54-2.32-29.41-.93-19.74,4.2-29.43,7c-9.8,2.83-19.59,5.66-29.37,8.54-19.16,5.64-38.27,11.48-57.18,17.91-21.37,7.26-42.49,15.28-63.09,24.53-1.76.79-.23,3.38,1.51,2.59h0Z"/><path class="cls-1" d="m12.16,85.7c.23,52.63-2.37,105.21-5.24,157.74S.97,347.95.18,400.28c-.44,29.52-.13,59.06,1.36,88.55.05.89.66,1.39,1.5,1.5,15.35,2.02,30.71,4.05,46.06,6.07,3.77.5,7.54.99,11.31,1.49,2.62.35,6.06,1.2,7.72-1.55.55-.91.7-1.97.84-3,.27-2,.52-4,.75-6.01.45-3.87.85-7.75,1.19-11.63,2.69-30.42,2.08-61.02.36-91.47-1.72-30.52-4.58-60.96-6.42-91.47-1.73-28.7-2.52-57.52-.69-86.24,1.83-28.69,6.36-57.31,15.28-84.69,1.09-3.35,2.25-6.68,3.47-9.99.67-1.81-2.23-2.6-2.89-.8-9.69,26.34-15.15,54.01-17.79,81.9-2.66,28.13-2.51,56.45-1.2,84.64,1.39,29.66,4.1,59.24,6.12,88.87,2.04,29.93,3.41,59.97,2.04,89.96-.34,7.51-.86,15.01-1.58,22.5-.36,3.75-.77,7.49-1.24,11.23-.16,1.28-.01,4.53-1.48,5.13-1.39.56-3.87-.29-5.3-.48-15.08-1.99-30.17-3.98-45.25-5.97-3.77-.5-7.54-.99-11.31-1.49l1.5,1.5c-2.65-52.51-1.53-105.12.81-157.62,2.33-52.31,5.84-104.56,7.98-156.88,1.2-29.53,1.96-59.08,1.83-88.64,0-1.93-3.01-1.93-3,0h0Z"/><path class="cls-1" d="m64.35,254.49c24.77-7.35,49.37-15.26,73.78-23.74,24.33-8.44,48.46-17.44,72.38-26.98,23.88-9.52,47.54-19.58,70.97-30.17,5.96-2.7,11.91-5.43,17.84-8.19,2.81-1.31,5.62-2.63,8.42-3.95,2.62-1.24,5.34-2.39,7.78-3.98,2.28-1.49,4.25-3.39,5.49-5.85s1.84-5.24,2.43-7.95c1.41-6.49,2.71-13,3.91-19.54,4.78-26,7.92-52.3,9.4-78.69.18-3.27.34-6.54.47-9.82.08-1.93-2.92-1.93-3,0-1.07,26.24-3.76,52.4-8.11,78.29-1.09,6.46-2.27,12.91-3.56,19.33-.63,3.13-1.28,6.25-1.95,9.36-.61,2.81-1.13,5.77-2.61,8.27-1.36,2.31-3.54,3.84-5.85,5.1-2.68,1.46-5.49,2.68-8.25,3.98-5.77,2.72-11.55,5.4-17.34,8.05-23.07,10.55-46.37,20.58-69.88,30.08-23.64,9.55-47.49,18.56-71.53,27.04-24.04,8.48-48.27,16.41-72.67,23.8-2.97.9-5.94,1.79-8.91,2.67-1.85.55-1.06,3.44.8,2.89h0Z"/><path class="cls-1" d="m238.79,116.2c-22.89,8.13-45.7,16.48-68.43,25.06s-45.22,17.31-67.71,26.28c-12.68,5.07-25.34,10.2-37.97,15.4-1.76.73-.99,3.63.8,2.89,22.46-9.25,45.01-18.29,67.64-27.11s45.2-17.36,67.93-25.71c12.82-4.71,25.67-9.35,38.54-13.93,1.81-.64,1.03-3.54-.8-2.89h0Z"/><path class="cls-1" d="m240.02,118.68c-1.31-20-2.63-40-3.94-60-.13-1.92-3.13-1.93-3,0,1.31,20,2.63,40,3.94,60,.13,1.92,3.13,1.93,3,0h0Z"/><path class="cls-1" d="m237.27,116.91c18.5,12.29,40.2,18.19,59.74,28.47,5.55,2.92,10.94,6.19,15.9,10.04.65.5,1.49.62,2.12,0,.52-.51.64-1.63,0-2.12-17.83-13.81-39.69-20.14-59.78-29.76-5.68-2.72-11.22-5.72-16.47-9.21-1.61-1.07-3.12,1.53-1.51,2.59h0Z"/><path class="cls-1" d="m320.79,148.46c-4.95,34.21-9.08,68.53-12.36,102.94s-5.7,68.86-7.28,103.36c-.4,8.66-.74,17.31-1.03,25.97-.14,4.22-.27,8.43-.38,12.65-.1,3.56.6,8.59-2.11,11.39-1.3,1.35-3.18,2.18-4.79,3.09-1.86,1.05-3.73,2.1-5.59,3.15-3.73,2.1-7.46,4.2-11.19,6.29-6.89,3.87-13.77,7.75-20.68,11.58-27.6,15.3-55.62,30.05-84.99,41.67s-58.73,19.69-89.57,21.85c-3.88.27-7.78.44-11.67.53-1.93.04-1.93,3.04,0,3,31.4-.66,62.25-7.8,91.67-18.54s58.19-25.21,85.99-40.37c14.26-7.78,28.39-15.78,42.54-23.75,3.3-1.85,7.16-3.47,10-6s3.17-6.03,3.27-9.5c.26-8.75.5-17.51.83-26.26,1.32-34.97,3.51-69.92,6.57-104.78s7.01-69.84,11.83-104.6c.6-4.29,1.2-8.58,1.83-12.87.27-1.89-2.62-2.7-2.89-.8h0Z"/><path class="cls-1" d="m62.45,271.28c16.06-7.21,32.7-13.06,49.53-18.19s34.09-9.61,51.25-13.99,34.26-8.69,51.23-13.62,33.35-10.32,49.45-17.05,31.5-14.58,45.94-24.2c1.82-1.21,3.62-2.46,5.41-3.72,1.56-1.11.07-3.71-1.51-2.59-14.18,10.05-29.49,18.39-45.39,25.38-15.96,7.01-32.48,12.67-49.17,17.67-16.91,5.06-34.02,9.44-51.12,13.81-17.16,4.38-34.34,8.75-51.33,13.77s-33.57,10.62-49.77,17.52c-2.02.86-4.03,1.74-6.03,2.64-1.76.79-.23,3.37,1.51,2.59h0Z"/><path class="cls-1" d="m305.39,298.85c-15.72,4.72-31.39,9.59-47.01,14.61-15.62,5.02-31.2,10.19-46.73,15.51s-31,10.79-46.42,16.4c-15.42,5.61-30.79,11.38-46.1,17.28s-30.57,11.96-45.76,18.16c-1.87.76-3.74,1.53-5.61,2.3-1.76.72-.99,3.63.8,2.89,15.18-6.23,30.42-12.33,45.72-18.27,15.3-5.94,30.65-11.74,46.06-17.39,15.41-5.65,30.87-11.15,46.38-16.51,15.51-5.36,31.08-10.56,46.69-15.62,15.61-5.06,31.27-9.97,46.98-14.72,1.93-.59,3.87-1.17,5.8-1.75s1.06-3.45-.8-2.89h0Z"/><path class="cls-1" d="m302.64,281.73c-30.33,9.48-60.66,18.97-90.99,28.45-30.17,9.43-60.34,18.87-90.51,28.3-16.99,5.31-33.98,10.63-50.97,15.94-1.84.57-1.05,3.47.8,2.89,30.33-9.48,60.66-18.97,90.99-28.45,30.17-9.43,60.34-18.87,90.51-28.3l50.97-15.94c1.84-.57,1.05-3.47-.8-2.89h0Z"/><path class="cls-1" d="m232.31,249.13c-21.46,10.6-43.25,20.54-65.34,29.77-22.06,9.22-44.41,17.75-67,25.58-12.68,4.39-25.43,8.55-38.25,12.5-1.84.57-1.06,3.46.8,2.89,22.93-7.05,45.64-14.82,68.08-23.29s44.57-17.63,66.41-27.47c12.37-5.58,24.65-11.37,36.82-17.38,1.73-.85.21-3.44-1.51-2.59h0Z"/><path class="cls-1" d="m232.88,249.27c9.07,5.81,19.18,9.7,29.4,12.98,10.15,3.26,20.63,5.78,30.55,9.73,4.36,1.73,9.19,4.37,10.57,9.2.53,1.85,3.43,1.06,2.89-.8-1.29-4.52-4.96-7.59-9.01-9.66-4.51-2.3-9.47-3.74-14.28-5.26-10.6-3.34-21.38-6.18-31.72-10.28-5.87-2.32-11.57-5.1-16.89-8.51-1.63-1.04-3.14,1.55-1.51,2.59h0Z"/><path class="cls-1" d="m236.07,249.93c3.08-10.5,5.09-21.29,6.06-32.19.17-1.92-2.83-1.91-3,0-.94,10.64-2.94,21.15-5.95,31.39-.54,1.86,2.35,2.65,2.89.8h0Z"/><path class="cls-1" d="m71.18,458.39c25.75-15.94,53.38-28.5,81.17-40.41,14.01-6,28.09-11.86,42.07-17.93,6.85-2.98,13.67-6,20.45-9.13,3.31-1.53,6.73-2.96,9.92-4.73,2.97-1.64,5.31-3.92,6.3-7.24,1.18-3.97.91-8.49,1.11-12.59.22-4.63.44-9.25.66-13.88.44-9.25.89-18.5,1.33-27.76.09-1.93-2.91-1.93-3,0-.77,16.16-1.48,32.33-2.32,48.49-.18,3.48-.64,6.87-3.59,9.12-2.65,2.02-6.02,3.25-9.02,4.65-6.76,3.15-13.57,6.21-20.41,9.2-27.35,11.97-55.12,22.97-82.07,35.84-15.08,7.2-29.88,14.99-44.1,23.79-1.64,1.01-.13,3.61,1.51,2.59h0Z"/><path class="cls-1" d="m230.17,380.79c11.25.54,22.47,1.66,33.6,3.4,5.42.85,10.83,1.82,16.19,2.96,3.92.83,7.88,1.84,11.52,3.56,4.03,1.9,7.54,4.63,9.45,8.75.81,1.75,3.4.23,2.59-1.51-3.65-7.88-12.44-11.24-20.35-13.14-10.91-2.62-22.14-4.23-33.28-5.46-6.55-.72-13.13-1.23-19.72-1.55-1.93-.09-1.93,2.91,0,3h0Z"/></g></svg>