<?xml version="1.0" encoding="UTF-8"?><svg id="Calque_2" xmlns="http://www.w3.org/2000/svg" viewBox="0 0 726.07 304.13"><defs><style>.cls-1{stroke-width:0px;}</style></defs><g id="Calque_1-2"><path class="cls-1" d="m210.42,301.3c-15.51-7.39-23.47-26.31-17.87-42.56.24-.71-.28-1.72-1.05-1.85-23.21-3.64-48.14-9.73-66.3-25.54-9.91-8.63-16.07-19.58-20.15-31.98s-6.84-26.26-13.81-37.91c-13.76-23-40.19-32.89-60.91-48.08-11.03-8.08-20.97-18.25-25.2-31.55-4-12.59-2.57-26.64,7.3-36.14,4.9-4.71,11.01-7.94,17.13-10.77,6.97-3.23,14.1-6.14,21.28-8.85,14.07-5.3,28.47-9.7,43.1-13.17,31.03-7.35,62.83-9.99,94.66-9.92,32.04.07,64,2.64,95.93,4.9,32.04,2.27,64.09,3.71,96.21,4.17,64.29.93,128.61-.9,192.89,1.41,16.05.58,32.09,1.41,48.1,2.62s30.88,2.16,45.95,5.35c25.04,5.31,53.91,21.28,55.38,50.11,1.48,29.08-23.48,49.67-48.52,58.48-28.22,9.92-58.79,10.15-88.33,8.87s-60.8-4.41-91.13-1.34c-29.34,2.97-57.5,14.49-87.1,15.12-7.39.16-14.79-.46-21.97-2.23s-13.99-5-20.81-8.06c-6.24-2.81-12.57-5.23-19.38-6.19s-14.09-.68-21.09.33c-13.54,1.96-27.42,5.9-40.15,10.93-9.51,3.76-19.36,9.26-24.08,18.79-3.03,6.12-2.66,13.03-4.99,19.34-2.01,5.46-6.3,9.35-11.27,12.13-9.48,5.31-21.19,6.57-30.16,12.75-3.86,2.65-7.94,7.1-7.45,12.15.55,5.7,6.19,6.9,9.39,10.68,4.44,5.24,1.1,12.8-1.53,18.05s-6.14,10.49-8.21,16.21c-4.22,11.66-3.32,24.67,2,35.8.83,1.74,3.42.22,2.59-1.51-6.71-14.05-4.82-28.95,2.57-42.23,4.53-8.14,12.47-20.84,4.03-29.16-1.84-1.82-4.36-2.83-6.14-4.69-3.37-3.52-.98-8.02,2.01-10.85,4.48-4.25,11-6.06,16.7-8.08,9.23-3.27,19.67-6.62,25.57-15,3.99-5.66,4.05-12.42,5.66-18.9,1.47-5.91,4.9-10.81,9.63-14.6,9.97-8.01,23.42-11.29,35.49-14.66,15.26-4.25,31.63-7.5,47.16-2.68,7.02,2.18,13.51,5.7,20.28,8.53s13.37,4.59,20.43,5.48c29.67,3.76,58.65-7.74,87.49-12.64,30.79-5.23,62.18-2.67,93.16-1.01,30.13,1.61,60.89,2.49,90.32-5.32,24.69-6.55,49.34-20.65,58.12-46.05,3.95-11.41,3.7-23.78-1.34-34.81s-14.15-19.83-24.43-25.93c-12.28-7.28-26.44-10.69-40.45-12.68-15.45-2.2-31.11-3.26-46.68-4.27-65.6-4.24-131.36-2.77-197.05-2.97-32.62-.1-65.24-.61-97.81-2.43-32.94-1.84-65.8-4.94-98.78-6.28-32.14-1.3-64.47-.87-96.31,4.05-30.07,4.65-59.49,13.23-87.38,25.4-11.55,5.04-24.1,11.07-29.79,23.07-5,10.55-3.95,23,.41,33.57,10.39,25.17,37.44,36.47,58.61,50.7,11.76,7.9,22.53,17.36,28.85,30.27s8.35,26.78,13.6,39.79c9.12,22.59,28.66,36.3,51.09,44.06,11.29,3.91,23.02,6.4,34.81,8.25l-1.05-1.85c-6,17.42,2.6,38.01,19.25,45.95,1.73.83,3.26-1.76,1.51-2.59h0Z"/></g></svg>